<?xml version="1.0" standalone="no"?>
<!DOCTYPE svg PUBLIC "-//W3C//DTD SVG 20010904//EN"
 "http://www.w3.org/TR/2001/REC-SVG-20010904/DTD/svg10.dtd">
<svg version="1.0" xmlns="http://www.w3.org/2000/svg"
 width="500.000000pt" height="500.000000pt" viewBox="0 0 500.000000 500.000000"
 preserveAspectRatio="xMidYMid meet">
<metadata>
Created by potrace 1.11, written by Peter Selinger 2001-2013
</metadata>
<g transform="translate(0.000000,500.000000) scale(0.100000,-0.100000)"
fill="#000000" stroke="none">
<path d="M4493 3714 c10 -10 -91 -43 -134 -44 -32 0 -69 -9 -119 -27 -8 -3
-21 -7 -28 -9 -6 -1 -31 -11 -55 -22 -37 -18 -93 -33 -137 -37 -30 -3 -104
-27 -125 -41 -21 -14 -23 -13 -29 16 -12 65 -72 88 -145 58 -14 -6 -31 -12
-37 -13 -6 -2 -37 -10 -67 -19 -85 -25 -119 -27 -134 -7 -7 10 -12 11 -13 4 0
-16 -30 -5 -30 11 0 7 -19 10 -56 9 -47 -1 -54 0 -43 13 14 17 5 19 -13 2 -36
-33 -52 -36 -71 -11 -22 28 -32 29 -54 4 -9 -11 -22 -17 -29 -14 -8 3 -14 0
-14 -6 0 -9 -5 -9 -20 -1 -12 6 -17 16 -13 26 4 11 0 15 -13 12 -14 -2 -18 2
-16 16 2 12 -1 16 -9 10 -9 -5 -10 -2 -6 9 5 14 2 16 -19 11 -17 -4 -30 -2
-36 7 -8 11 -9 10 -5 -3 3 -9 1 -19 -6 -22 -7 -3 -3 -4 8 -3 14 1 20 -4 19
-16 -2 -13 1 -15 11 -7 18 15 29 -18 13 -38 -11 -13 -9 -15 14 -10 29 5 57 -6
45 -19 -5 -4 -12 -2 -16 5 -6 10 -11 10 -21 -3 -7 -8 -8 -15 -2 -15 5 0 8 -8
6 -18 -3 -9 4 -27 15 -39 22 -23 17 -31 -24 -39 -16 -3 -24 0 -23 7 4 17 -73
17 -91 1 -7 -7 -22 -10 -33 -6 -15 4 -18 3 -13 -7 6 -9 3 -11 -9 -6 -10 4 -20
7 -22 7 -2 0 -4 5 -4 10 0 6 12 10 28 10 30 0 60 15 50 25 -4 4 -13 3 -20 -1
-34 -21 -47 -10 -29 25 12 22 -1 44 -28 48 -15 2 -19 -1 -14 -14 5 -11 3 -14
-6 -9 -7 5 -11 16 -8 26 2 9 -4 22 -14 29 -15 9 -19 8 -19 -4 0 -8 4 -15 9
-15 17 0 4 -35 -14 -38 -10 -2 -15 0 -11 6 10 16 -14 26 -27 12 -9 -10 -9 -14
1 -17 17 -6 15 -20 -4 -27 -8 -3 -13 -2 -9 3 7 12 -4 41 -16 41 -4 0 -6 -7 -3
-15 4 -8 1 -15 -6 -15 -9 0 -8 -6 3 -18 21 -23 21 -38 1 -46 -17 -7 -54 10
-54 24 0 6 -7 10 -15 10 -9 0 -12 6 -9 15 8 20 -5 19 -28 -2 -16 -15 -27 -5
-11 11 9 9 13 38 7 48 -3 5 -12 4 -20 -3 -10 -8 -14 -8 -14 0 0 13 -51 3 -61
-12 -5 -6 -18 -6 -40 2 -27 9 -35 8 -50 -5 -21 -19 -84 -29 -93 -15 -4 6 -19
8 -35 5 -20 -4 -30 -1 -34 10 -7 18 -37 22 -37 6 0 -6 -8 -10 -17 -8 -12 2
-17 -3 -15 -13 1 -9 -4 -19 -11 -22 -9 -3 -13 4 -13 22 1 19 -4 26 -16 25 -10
-1 -18 3 -18 8 0 5 -14 -2 -31 -16 -30 -26 -49 -33 -49 -18 0 4 8 12 19 19 10
6 21 21 24 32 5 22 -7 29 -18 11 -3 -5 -11 -10 -18 -10 -8 0 -8 3 0 11 6 6 9
17 7 24 -8 19 -41 6 -48 -18 -6 -22 -6 -22 -18 -2 -16 30 -18 31 -28 15 -5 -8
-4 -22 2 -34 6 -12 12 -32 14 -45 2 -20 1 -22 -11 -10 -8 8 -16 25 -18 39 -3
16 -11 24 -21 24 -9 -1 -16 2 -16 7 0 5 -7 9 -16 9 -10 0 -14 -6 -10 -15 3
-10 -1 -15 -12 -15 -16 -1 -16 -1 1 -14 23 -18 21 -25 -5 -19 -23 5 -23 5 2
-18 14 -14 36 -29 49 -35 20 -8 21 -12 9 -22 -12 -9 -22 -6 -54 16 -41 28 -81
41 -69 23 3 -7 0 -8 -9 -5 -25 9 -19 -12 7 -24 20 -10 19 -11 -8 -5 -16 3 -36
10 -42 16 -9 7 -13 5 -13 -7 0 -9 -3 -15 -7 -15 -20 3 -27 -2 -14 -10 10 -7
12 -13 5 -23 -6 -7 -10 -25 -9 -40 1 -26 0 -27 -21 -13 -23 15 -44 4 -44 -22
0 -7 -4 -13 -9 -13 -14 0 -19 -35 -6 -47 7 -6 26 -14 42 -16 40 -6 73 -25 73
-41 0 -24 -12 -25 -36 -1 -25 25 -49 25 -70 -1 -17 -21 -99 23 -99 53 0 13 -4
22 -9 22 -5 0 -12 5 -17 12 -10 17 -60 -8 -52 -26 3 -10 -14 -8 -69 6 -40 11
-84 21 -98 23 -61 7 -107 34 -174 101 -101 100 -192 166 -263 191 -35 12 -63
19 -63 15 0 -4 26 -24 58 -44 58 -37 252 -222 252 -240 0 -6 -8 -1 -18 10 -21
25 -122 77 -130 68 -4 -4 13 -25 37 -46 24 -21 42 -39 40 -39 -3 0 -29 13 -59
30 -30 16 -62 32 -70 35 -8 4 -44 20 -79 36 -35 17 -66 28 -68 25 -18 -18 32
-61 144 -124 33 -18 72 -44 88 -58 l30 -25 -50 26 c-27 14 -57 29 -65 35 -8 5
-49 25 -90 43 -41 19 -96 44 -122 56 -75 34 -90 24 -18 -12 58 -29 157 -94
185 -120 13 -12 -91 0 -117 14 -23 12 -24 0 0 -17 14 -11 14 -13 2 -14 -8 0 8
-12 35 -26 28 -14 54 -30 59 -35 12 -11 -193 75 -239 101 -19 11 -46 22 -60
24 -40 7 -31 -22 12 -40 62 -27 68 -31 68 -45 0 -8 29 -28 63 -45 80 -40 91
-50 49 -47 -64 4 -152 37 -187 70 -37 35 -65 46 -37 15 10 -10 15 -21 12 -24
-14 -13 84 -79 183 -124 115 -51 153 -74 84 -50 -23 8 -44 15 -47 16 -5 0
-112 53 -172 84 -18 10 -35 21 -38 27 -8 12 -45 12 -45 -1 0 -10 52 -40 71
-40 6 0 27 -13 46 -30 18 -17 38 -30 43 -30 6 0 28 -18 49 -39 l40 -40 -45
-15 c-42 -14 -49 -14 -97 5 -117 47 -174 62 -181 51 -3 -4 21 -18 52 -30 63
-25 99 -48 89 -58 -4 -4 -12 -2 -19 4 -7 6 -16 11 -21 11 -4 0 -21 8 -37 16
-17 9 -30 13 -30 10 0 -3 -19 4 -42 16 -91 46 -127 42 -70 -8 32 -29 139 -83
165 -83 32 0 17 -17 -32 -39 -28 -11 -52 -25 -55 -30 -3 -5 -20 -5 -38 -2 -37
8 -105 -7 -157 -33 -43 -23 -27 -36 44 -36 31 0 45 -4 40 -9 -12 -12 -42 -17
-175 -31 -58 -6 -118 -14 -135 -19 l-30 -8 50 -15 c48 -15 77 -15 174 -2 l44
6 -9 -29 c-4 -15 -8 -57 -8 -94 -1 -57 4 -72 32 -116 92 -143 387 -318 518
-307 25 2 33 0 24 -6 -18 -11 -14 -14 40 -28 68 -16 193 -52 202 -58 4 -3 8
-23 8 -44 0 -22 9 -62 20 -90 11 -28 20 -61 20 -74 0 -12 3 -26 7 -30 4 -3 8
-17 10 -29 2 -12 10 -35 18 -52 26 -53 241 -265 275 -271 3 0 19 -6 35 -13 37
-15 130 -41 169 -46 16 -3 43 -9 60 -14 32 -10 99 -23 126 -25 8 -1 44 -5 80
-8 60 -7 173 -13 480 -25 63 -3 183 -6 265 -7 83 -1 156 -6 164 -11 9 -5 16
-5 18 1 3 10 60 10 114 0 15 -3 29 -2 33 1 3 3 32 7 63 9 32 1 69 5 83 9 23 6
73 18 127 29 12 3 31 10 43 16 11 6 28 10 38 10 9 -1 28 1 41 5 47 15 207 97
259 132 88 61 145 170 157 298 4 44 8 82 10 85 2 3 7 33 10 65 4 33 8 65 9 70
0 6 -6 8 -14 7 -42 -10 -50 -10 -45 -1 4 5 11 7 16 4 5 -4 9 0 9 9 0 21 22 26
42 9 17 -15 48 -7 46 12 -1 6 7 12 17 14 18 3 18 2 5 -15 -14 -16 -13 -17 3
-11 10 4 21 7 23 7 2 0 4 6 4 14 0 14 29 30 38 21 3 -3 0 -5 -6 -5 -7 0 -12
-4 -12 -9 0 -12 38 -5 56 10 8 6 14 9 14 5 0 -3 27 7 60 24 33 17 60 28 60 25
0 -6 35 11 90 42 14 8 46 24 73 36 27 12 46 26 43 33 -3 7 2 10 12 7 10 -2 27
5 39 16 12 12 27 21 33 21 5 0 10 3 10 8 0 4 22 22 48 41 26 18 59 52 74 75
15 22 38 54 50 69 19 24 23 39 21 96 -1 71 -25 147 -43 136 -9 -6 -49 31 -50
45 0 3 20 12 46 19 25 7 51 19 58 26 17 18 72 28 133 26 80 -3 163 42 163 88
0 12 7 32 15 45 34 51 -31 119 -131 137 -65 12 -188 14 -249 5 -78 -13 -180
-17 -194 -8 -9 7 -11 19 -6 41 5 24 20 40 61 66 53 34 144 120 144 137 0 4 10
8 23 8 23 0 49 31 53 65 4 34 34 96 49 102 8 3 15 11 15 18 0 6 24 36 54 65
30 30 53 57 50 61 -2 4 -43 5 -91 2 -77 -4 -121 0 -223 23 -13 3 -21 2 -17 -2z
m-1070 -148 c-4 -6 -15 -17 -26 -25 -10 -7 -16 -19 -13 -27 3 -8 0 -11 -10 -7
-9 3 -12 0 -9 -9 3 -8 -1 -20 -9 -27 -12 -10 -14 -9 -9 8 3 13 1 21 -7 21 -10
0 -10 3 0 15 7 8 10 25 6 38 -5 21 -2 23 39 23 29 1 42 -3 38 -10z m-1233 -66
c0 -5 -4 -10 -10 -10 -5 0 -10 5 -10 10 0 6 5 10 10 10 6 0 10 -4 10 -10z
m512 -42 c9 -23 -3 -38 -28 -38 -31 0 -22 20 9 21 12 0 16 3 10 6 -15 5 -17
23 -4 23 5 0 11 -6 13 -12z m-890 -25 c-26 -10 1 -22 41 -17 l42 5 -28 -16
c-20 -12 -32 -13 -47 -5 -11 6 -20 7 -20 3 0 -4 -6 -1 -12 5 -10 10 -10 15 2
22 8 5 20 9 25 9 6 0 4 -3 -3 -6z"/>
<path d="M3360 3549 c0 -5 5 -7 10 -4 6 3 10 8 10 11 0 2 -4 4 -10 4 -5 0 -10
-5 -10 -11z"/>
<path d="M2980 3692 c0 -12 19 -26 26 -19 2 2 -2 10 -11 17 -9 8 -15 8 -15 2z"/>
<path d="M3116 3654 c-8 -21 -8 -24 3 -24 12 0 22 28 12 35 -5 3 -12 -2 -15
-11z"/>
<path d="M3250 3623 c0 -17 25 -16 39 1 10 11 7 14 -14 12 -14 0 -25 -7 -25
-13z"/>
<path d="M3175 3620 c-3 -5 1 -10 9 -10 9 0 16 5 16 10 0 6 -4 10 -9 10 -6 0
-13 -4 -16 -10z"/>
<path d="M3400 3620 c0 -5 5 -10 10 -10 6 0 10 5 10 10 0 6 -4 10 -10 10 -5 0
-10 -4 -10 -10z"/>
<path d="M2738 3473 c7 -3 16 -2 19 1 4 3 -2 6 -13 5 -11 0 -14 -3 -6 -6z"/>
<path d="M546 3227 c3 -10 9 -15 12 -12 3 3 0 11 -7 18 -10 9 -11 8 -5 -6z"/>
</g>
</svg>
